# xmcd
#
# Track frame offsets: 
#        150
#        12157
#        24216
#        37569
#        51096
#        64324
#        76610
#        87834
#        100878
#        113313
#        126859
#        137156
#        150131
#        161125
#        174002
#        186287
#        199913
#        212796
#        226808
#        238756
#        253534
#        267242
#        280276
#        293577
#        306130
#        318819
#
# Disc length: 4429 seconds
#
# Revision: 0
# Processed by: cddbd v1.5.1PL0 Copyright (c) Steve Scherf et al.
# Submitted via: ExactAudioCopy v0.95a5
#
DISCID=46114b1a
DTITLE=Amos Milbrun - The Chicken Shack Boogie Man Disc 02
DYEAR=1950
DGENRE=Blues
TTITLE0=It Took A Long Long Time
TTITLE1=Wolf On The River
TTITLE2=Empty Arms Blues
TTITLE3=Bewildered
TTITLE4=A and M Blues
TTITLE5=In The Middle Of The Night
TTITLE6=Jitterbug Fashion Parade
TTITLE7=My Luck Is Bound To Change
TTITLE8=Roomin' House Boogie
TTITLE9=Walkin' Blues
TTITLE10=Blue And Lonesome
TTITLE11=Drifting Blues
TTITLE12=Real Pretty Mama Blues
TTITLE13=Boogie Woogie
TTITLE14=Atomic Baby
TTITLE15=She's Gone Again
TTITLE16=Sax Shack Boogie
TTITLE17=Birmingham Bounce
TTITLE18=Let's Rock A While
TTITLE19=Hard Luck Blues
TTITLE20=Two Years Of Torture
TTITLE21=I'm Gonna Tell My Mama
TTITLE22=Bad Bad Whiskey
TTITLE23=Tears, Tears, Tears
TTITLE24=I Love You Anyway
TTITLE25=Just One More Drink
EXTD=
EXTT0=
EXTT1=
EXTT2=
EXTT3=
EXTT4=
EXTT5=
EXTT6=
EXTT7=
EXTT8=
EXTT9=
EXTT10=
EXTT11=
EXTT12=
EXTT13=
EXTT14=
EXTT15=
EXTT16=
EXTT17=
EXTT18=
EXTT19=
EXTT20=
EXTT21=
EXTT22=
EXTT23=
EXTT24=
EXTT25=
PLAYORDER=
